<?xml version="1.0" encoding="UTF-8" standalone="no"?>
<!DOCTYPE svg PUBLIC "-//W3C//DTD SVG 1.1//EN" "http://www.w3.org/Graphics/SVG/1.1/DTD/svg11.dtd">
<svg width="100%" height="100%" viewBox="0 0 512 512" version="1.1" xmlns="http://www.w3.org/2000/svg" xmlns:xlink="http://www.w3.org/1999/xlink" xml:space="preserve" xmlns:serif="http://www.serif.com/" style="fill-rule:evenodd;clip-rule:evenodd;stroke-linejoin:round;stroke-miterlimit:2;">
    <path id="vazarin" d="M413.126,21.1C402.301,23.372 405.56,41.659 391.628,36.034C278.144,39.663 164.473,39.667 51.13,46.463C40.978,44.797 31.677,56.513 42.128,63.402C88.851,101.347 138.548,135.507 181.804,177.582C272.254,262.386 347.9,365.968 382.219,486.296C390.944,499.049 403.743,482.693 408.896,474.727C462.4,398.683 481.774,302.67 472.043,211.006C465.189,146.767 448.965,82.717 420.358,24.685C418.805,22.328 416.064,20.552 413.126,21.1ZM419.626,167.875C430.025,220.116 415.998,275.69 385.508,319.13C345.004,272.944 305.242,226.102 266.152,178.774C316.516,173.424 368.935,170.807 419.626,167.875Z" style="fill-rule:nonzero;stroke:black;stroke-width:8.33px;"/>
</svg>
